<svg xmlns="http://www.w3.org/2000/svg" viewBox="0 0 64 64" role="img" aria-labelledby="t"><title id="t">SonneARK</title><defs><linearGradient id="g" x1="8" y1="5" x2="55" y2="59" gradientUnits="userSpaceOnUse"><stop stop-color="#8fb3ff"/><stop offset=".52" stop-color="#3b70db"/><stop offset="1" stop-color="#18336d"/></linearGradient></defs><circle cx="32" cy="32" r="27" fill="#07111f" stroke="#90adf2" stroke-width="2"/><path d="M18 38c6 4 22 5 29-1-4 10-15 16-26 10-4-2-7-5-8-9 1 0 3 0 5 0Z" fill="#e9a65a"/><path d="M18 32c7-12 23-16 31-4-9-4-20-1-26 7-2 2-4 2-6 1-2-1-2-2 1-4Z" fill="url(#g)"/><circle cx="42" cy="21" r="4" fill="#edf4ff"/><path d="M8 31c7-3 16-4 25-2 10 2 17 7 23 13" fill="none" stroke="#7aa2ff" stroke-width="1.5" stroke-linecap="round" opacity=".85"/></svg>